<svg fill="none" xmlns="http://www.w3.org/2000/svg" viewBox="0 0 43 42"><path d="M42.2076 18.879c-.1024-.7721-.7682-1.3383-1.5364-1.3383H23.4131c-.4096.0515-.7681.3089-.973.6692-2.3045 3.9632-2.3045 3.9632-.4096 8.1839.3584.772 1.3826.9265 1.7923.9265 2.3045 0 8.1426.0514 8.1426.0514l-.1537.3089c-.3584.5661-.7681 1.0808-1.2802 1.5441-2.7142 2.5735-6.0429 4.0662-9.8837 3.8603-4.4554-.2059-7.6817-2.6765-9.7301-6.3824-2.1509-3.8603-5.7357-5.2501-9.474-6.5368-.6658-.2574-1.3828.2573-1.434.9779-.2048 5.5589 2.8166 13.1766 9.8325 17.5517 7.7841 4.9412 17.7702 4.2721 24.8886-1.5442 5.9917-4.9412 8.3474-12.7133 7.4768-18.2722Zm-26.5273-7.4119c1.6387-.6691 3.3799-1.2353 5.1211-1.3382 4.3529-.3088 7.8353 1.4412 10.5495 4.8897.4096.5148 1.0754.6692 1.6387.4633l6.1453-2.3677c.8194-.3088 1.1779-1.2353.7682-2.0074C36.2159 3.9523 28.5855-.4742 20.3405.0405 13.7343.3494 8.4083 3.1288 4.3627 8.276c-.5122.6691-.2049 1.6471.5633 1.9045 1.229.4632 2.4069.8235 3.4823 1.3897 2.5094 1.2868 4.8139.9265 7.272-.103Zm-5.1723 3.5515c.256.103.6657-.2573.973-.4117l-.1024-.4118c-2.7142-1.0294-5.4284-2.1103-8.1426-3.1397-.3072-.103-.7681.1544-1.1266.2573l.0512.5147c2.7654 1.0809 5.582 2.1618 8.3474 3.1912ZM.6243 18.4672c2.7141 1.0809 5.4795 2.1618 8.245 3.1912l.3072-.2573c-.2049-.3603-.3073-.875-.6145-.978-2.663-1.0809-5.4284-2.1103-8.1426-3.1397l-.4097.2573c.256.3603.3585.8236.6146.9265Zm1.3827-4.2721c2.3557.875 4.7626 1.8015 7.1183 2.728.717.3088 1.0754.1544 1.0754-.7721l-8.501-3.2427c-.6145.7206-.461 1.0294.3073 1.2868Zm-.8706 2.0589a254.7932 254.7932 0 0 0 7.9889 3.0882l.3073-.2573c-.2049-.3089-.3073-.875-.6146-.978-2.6117-1.0294-5.2235-2.0074-7.784-3.0368l-.3585.1544c.1536.3603.2048.9265.4609 1.0295Z" fill="#FAA05F"/></svg>
